<svg width="78" height="78" viewBox="0 0 78 78" fill="none" xmlns="http://www.w3.org/2000/svg">
<g filter="url(#filter0_d_4_11)">
<rect x="4" y="-1.52588e-05" width="70" height="70" rx="15" fill="#FFFBFB"/>
</g>
<g filter="url(#filter1_d_4_11)">
<path d="M22.0871 32.5451L21.0392 36.4394C20.7852 37.3842 20.7329 38.3618 20.8359 39.3276L17.8659 41.7614C17.3116 42.2158 16.4897 41.7253 16.6323 41.0249L17.9351 34.5851C18.0245 34.1433 17.7106 33.7217 17.2601 33.6789L10.6907 33.0448C9.97608 32.9759 9.7432 32.0513 10.3414 31.6557L15.8384 28.0192C16.2147 27.7698 16.2923 27.2508 16.0054 26.9031L11.8112 21.8297C11.3547 21.2779 11.8475 20.4608 12.552 20.6019L19.0218 21.8986C19.4656 21.9876 19.8892 21.6752 19.933 21.2267L20.5701 14.6878C20.6393 13.9756 21.5682 13.7446 21.9665 14.3401L25.6199 19.8107C25.8704 20.1853 26.3919 20.2626 26.7412 19.977L31.8374 15.8022C32.3917 15.3479 33.2127 15.8383 33.0709 16.5387L32.115 21.2552C31.8863 21.5114 31.6568 21.7667 31.4476 22.0447L28.7349 25.6534L27.8313 26.8561C25.0697 27.5918 22.838 29.756 22.0871 32.5451ZM63.816 43.6737L62.768 47.5672C62.5039 48.5481 61.9766 49.382 61.2873 50.0329C61.0579 50.2491 60.8106 50.4458 60.5482 50.6208L59.3678 55.0072C59.2716 55.3658 59.1062 55.6875 58.8911 55.963C58.2439 56.7894 57.1411 57.1958 56.0611 56.9078L53.4531 56.2124C52.0129 55.8286 51.1582 54.3547 51.5438 52.9211L52.2424 50.3252L31.3784 44.7605L30.6798 47.3564C30.2942 48.79 28.8134 49.6407 27.3731 49.2569L24.7651 48.5615C23.6852 48.2735 22.9342 47.3723 22.7891 46.3351C22.741 45.9891 22.7596 45.628 22.8558 45.2702L24.0362 40.8838C23.8965 40.6014 23.7811 40.3078 23.6911 40.0062C23.4211 39.1 23.3831 38.1149 23.6472 37.1339L24.6951 33.2396C25.1431 31.5768 26.3286 30.3145 27.8077 29.6947C28.305 29.4861 28.8308 29.3525 29.3677 29.2983L30.8975 27.2634L33.6101 23.6546C33.9012 23.2675 34.2167 22.9072 34.5551 22.5763C35.2301 21.9137 35.992 21.3636 36.8112 20.9378C37.2213 20.7245 37.6457 20.5422 38.0811 20.3927C38.9526 20.0921 39.8689 19.9199 40.8013 19.8855C41.7336 19.851 42.6837 19.9543 43.6219 20.2046L53.9729 22.9651C54.9111 23.2154 55.7852 23.5984 56.5758 24.093C57.7556 24.8304 58.7555 25.8202 59.5028 26.9905C60.2469 28.1561 60.738 29.4965 60.9101 30.9368L61.4467 35.4123L61.7496 37.936C62.6258 38.5656 63.2937 39.4407 63.6683 40.4496C64.0387 41.4473 64.1146 42.5651 63.816 43.6737ZM31.5648 33.6814C29.9997 33.264 28.6784 34.0207 28.2599 35.5735C27.8414 37.1264 28.6067 38.439 30.171 38.8564C31.7361 39.2738 34.0134 40.159 34.431 38.6062C34.8495 37.0533 33.1291 34.0988 31.5648 33.6814ZM56.0848 36.0472L55.5482 31.5717C55.4992 31.1627 55.3887 30.7714 55.2258 30.4077C54.7365 29.3168 53.7746 28.4753 52.5748 28.1553L42.2238 25.3948C41.4419 25.1863 40.6153 25.2158 39.8504 25.4794C39.0855 25.743 38.4175 26.2286 37.9326 26.8737L35.2199 30.4825L49.7323 34.3524L56.0848 36.0472ZM57.6448 40.6369C56.0797 40.2195 53.1055 41.9227 52.6879 43.4747C52.2702 45.0275 54.6867 45.3945 56.2518 45.8119C57.817 46.2293 59.1383 45.4726 59.5568 43.9198C59.9744 42.3678 59.21 41.0543 57.6448 40.6369Z" fill="#1E1E1E"/>
</g>
<defs>
<filter id="filter0_d_4_11" x="0" y="-1.52588e-05" width="78" height="78" filterUnits="userSpaceOnUse" color-interpolation-filters="sRGB">
<feFlood flood-opacity="0" result="BackgroundImageFix"/>
<feColorMatrix in="SourceAlpha" type="matrix" values="0 0 0 0 0 0 0 0 0 0 0 0 0 0 0 0 0 0 127 0" result="hardAlpha"/>
<feOffset dy="4"/>
<feGaussianBlur stdDeviation="2"/>
<feComposite in2="hardAlpha" operator="out"/>
<feColorMatrix type="matrix" values="0 0 0 0 0 0 0 0 0 0 0 0 0 0 0 0 0 0 0.25 0"/>
<feBlend mode="normal" in2="BackgroundImageFix" result="effect1_dropShadow_4_11"/>
<feBlend mode="normal" in="SourceGraphic" in2="effect1_dropShadow_4_11" result="shape"/>
</filter>
<filter id="filter1_d_4_11" x="6" y="14" width="62" height="51" filterUnits="userSpaceOnUse" color-interpolation-filters="sRGB">
<feFlood flood-opacity="0" result="BackgroundImageFix"/>
<feColorMatrix in="SourceAlpha" type="matrix" values="0 0 0 0 0 0 0 0 0 0 0 0 0 0 0 0 0 0 127 0" result="hardAlpha"/>
<feOffset dy="4"/>
<feGaussianBlur stdDeviation="2"/>
<feComposite in2="hardAlpha" operator="out"/>
<feColorMatrix type="matrix" values="0 0 0 0 0 0 0 0 0 0 0 0 0 0 0 0 0 0 0.25 0"/>
<feBlend mode="normal" in2="BackgroundImageFix" result="effect1_dropShadow_4_11"/>
<feBlend mode="normal" in="SourceGraphic" in2="effect1_dropShadow_4_11" result="shape"/>
</filter>
</defs>
</svg>
